<svg width="16" height="16" viewBox="0 0 16 16" fill="none" xmlns="http://www.w3.org/2000/svg">
<path fill-rule="evenodd" clip-rule="evenodd" d="M3.85355 3.14645C3.65829 2.95118 3.34171 2.95118 3.14645 3.14645C2.95118 3.34171 2.95118 3.65829 3.14645 3.85355L7.23068 7.93779L3.14645 12.022C2.95118 12.2173 2.95118 12.5339 3.14645 12.7291C3.34171 12.9244 3.65829 12.9244 3.85355 12.7291L7.93779 8.64489L12.022 12.7291C12.2173 12.9244 12.5339 12.9244 12.7291 12.7291C12.9244 12.5339 12.9244 12.2173 12.7291 12.022L8.64489 7.93779L12.7291 3.85355C12.9244 3.65829 12.9244 3.34171 12.7291 3.14645C12.5339 2.95118 12.2173 2.95118 12.022 3.14645L7.93779 7.23068L3.85355 3.14645Z" fill="black" fill-opacity="0.8"/>
</svg>
