<svg width="14" height="14" viewBox="0 0 14 14" fill="none" xmlns="http://www.w3.org/2000/svg">
<path fill-rule="evenodd" clip-rule="evenodd" d="M1.60757 6C1.05529 6 0.607573 6.44772 0.607573 7C0.607573 7.55228 1.05529 8 1.60757 8L6.00001 8L6.00001 12.3924C6.00001 12.9447 6.44773 13.3924 7.00001 13.3924C7.5523 13.3924 8.00001 12.9447 8.00001 12.3924L8.00001 8H12.3925C12.9447 8 13.3925 7.55228 13.3925 7C13.3925 6.44772 12.9447 6 12.3925 6H8.00001L8.00001 1.60756C8.00001 1.05527 7.5523 0.607559 7.00001 0.607559C6.44773 0.607559 6.00001 1.05527 6.00001 1.60756L6.00001 6L1.60757 6Z" fill="#808080"/>
</svg>
