<svg width="17" height="16" viewBox="0 0 17 16" fill="none" xmlns="http://www.w3.org/2000/svg">
<g filter="url(#filter0_d_202_375)">
<path d="M14.7758 4.79736C15.1307 4.79736 15.471 4.93833 15.7219 5.18924C15.9728 5.44016 16.1138 5.78047 16.1138 6.13532V8.81123C16.1138 9.16608 15.9728 9.5064 15.7219 9.75731C15.471 10.0082 15.1307 10.1492 14.7758 10.1492H14.0654C13.9023 11.4425 13.2728 12.6319 12.2951 13.4941C11.3173 14.3563 10.0586 14.832 8.755 14.832V13.4941C9.81955 13.4941 10.8405 13.0712 11.5932 12.3184C12.346 11.5657 12.7689 10.5448 12.7689 9.48021V5.46634C12.7689 4.4018 12.346 3.38085 11.5932 2.62811C10.8405 1.87536 9.81955 1.45247 8.755 1.45247C7.69046 1.45247 6.66951 1.87536 5.91677 2.62811C5.16402 3.38085 4.74113 4.4018 4.74113 5.46634V10.1492H2.7342C2.37935 10.1492 2.03903 10.0082 1.78812 9.75731C1.5372 9.5064 1.39624 9.16608 1.39624 8.81123V6.13532C1.39624 5.78047 1.5372 5.44016 1.78812 5.18924C2.03903 4.93833 2.37935 4.79736 2.7342 4.79736H3.44465C3.6079 3.50416 4.23744 2.31497 5.21515 1.45292C6.19286 0.59088 7.45153 0.115234 8.755 0.115234C10.0585 0.115234 11.3171 0.59088 12.2949 1.45292C13.2726 2.31497 13.9021 3.50416 14.0654 4.79736H14.7758ZM5.91853 10.0054L6.62765 8.87077C7.26524 9.27018 8.00265 9.48143 8.755 9.48021C9.50736 9.48143 10.2448 9.27018 10.8824 8.87077L11.5915 10.0054C10.7414 10.538 9.75816 10.8197 8.755 10.8182C7.75184 10.8197 6.76863 10.538 5.91853 10.0054Z" fill="#F9995D"/>
</g>
<defs>
<filter id="filter0_d_202_375" x="-2.60376" y="0.115234" width="22.7175" height="22.7168" filterUnits="userSpaceOnUse" color-interpolation-filters="sRGB">
<feFlood flood-opacity="0" result="BackgroundImageFix"/>
<feColorMatrix in="SourceAlpha" type="matrix" values="0 0 0 0 0 0 0 0 0 0 0 0 0 0 0 0 0 0 127 0" result="hardAlpha"/>
<feOffset dy="4"/>
<feGaussianBlur stdDeviation="2"/>
<feComposite in2="hardAlpha" operator="out"/>
<feColorMatrix type="matrix" values="0 0 0 0 0 0 0 0 0 0 0 0 0 0 0 0 0 0 0.25 0"/>
<feBlend mode="normal" in2="BackgroundImageFix" result="effect1_dropShadow_202_375"/>
<feBlend mode="normal" in="SourceGraphic" in2="effect1_dropShadow_202_375" result="shape"/>
</filter>
</defs>
</svg>
