<svg width="117" height="35" viewBox="0 0 117 35" fill="none" xmlns="http://www.w3.org/2000/svg">
<path d="M50.7875 10.6098L50.107 13.5295H45.4312L42.7531 25.0981H38.9773L41.6555 13.5295H36.9358L37.6163 10.6098H50.7875ZM49.067 25.0981L52.6891 9.46834H56.4209L54.7745 16.6247L54.4013 17.1515C54.5916 16.5369 54.877 15.9881 55.2575 15.5051C55.638 15.0222 56.1136 14.6344 56.6843 14.3417C57.2551 14.049 57.9063 13.9026 58.6381 13.9026C59.3698 13.9026 59.9918 14.0709 60.504 14.4075C61.0308 14.7441 61.3967 15.2198 61.6016 15.8344C61.8211 16.4491 61.8357 17.1808 61.6455 18.0296L59.9991 25.0981H56.2673L57.7819 18.6223C57.9136 18.0369 57.8624 17.5833 57.6283 17.2613C57.3941 16.9247 57.0136 16.7564 56.4868 16.7564C56.0916 16.7564 55.7404 16.8515 55.4331 17.0418C55.1404 17.2174 54.8843 17.4881 54.6648 17.854C54.4599 18.2052 54.2989 18.6443 54.1818 19.1711L52.7988 25.0981H49.067ZM68.6344 25.2957C67.5515 25.2957 66.6002 25.0908 65.7807 24.6811C64.9611 24.2567 64.3245 23.6713 63.8709 22.9249C63.4172 22.1785 63.1904 21.3078 63.1904 20.3126C63.1904 19.0833 63.4391 17.993 63.9367 17.0418C64.4489 16.0759 65.166 15.3149 66.088 14.7588C67.0246 14.2027 68.1369 13.9246 69.4247 13.9246C70.493 13.9246 71.4004 14.1295 72.1468 14.5392C72.9078 14.9344 73.4858 15.4978 73.881 16.2296C74.2761 16.9613 74.4737 17.8247 74.4737 18.8199C74.4737 19.0979 74.459 19.3906 74.4298 19.698C74.4005 20.0053 74.342 20.3053 74.2541 20.598H65.6051V18.5784H71.8175L70.7857 19.1492C70.8443 18.9443 70.8809 18.7687 70.8955 18.6223C70.9101 18.476 70.9174 18.3369 70.9174 18.2052C70.9174 17.8247 70.8516 17.5101 70.7199 17.2613C70.5882 17.0125 70.4052 16.8296 70.1711 16.7125C69.9369 16.5808 69.6589 16.5149 69.3369 16.5149C68.8101 16.5149 68.371 16.6393 68.0198 16.8881C67.6832 17.1369 67.4124 17.4662 67.2076 17.8759C67.0027 18.2711 66.8563 18.7028 66.7685 19.1711C66.6953 19.6394 66.6588 20.0931 66.6588 20.5321C66.6588 21.0004 66.7466 21.3956 66.9222 21.7175C67.1124 22.0395 67.3612 22.2883 67.6686 22.4639C67.9905 22.6249 68.3637 22.7054 68.7881 22.7054C69.315 22.7054 69.7394 22.5883 70.0613 22.3541C70.3833 22.1054 70.6321 21.798 70.8077 21.4322L73.881 22.6395C73.6322 23.1956 73.2444 23.6713 72.7175 24.0664C72.2053 24.4615 71.598 24.7689 70.8955 24.9884C70.2077 25.1933 69.454 25.2957 68.6344 25.2957ZM76.8232 25.0981V10.6098H83.8698C85.6552 10.6245 86.9723 10.9684 87.8211 11.6416C88.67 12.3001 89.0944 13.2587 89.0944 14.5173C89.0944 15.3368 88.8529 16.0466 88.3699 16.6466C87.887 17.232 87.1479 17.6052 86.1528 17.7662V17.7881C87.265 17.9345 88.0919 18.3223 88.6334 18.9516C89.1895 19.5662 89.4675 20.3126 89.4675 21.1907C89.4675 22.4346 89.0285 23.4005 88.1504 24.0884C87.2723 24.7615 85.9552 25.0981 84.1991 25.0981H76.8232ZM80.4672 22.442H83.5625C84.2503 22.442 84.7625 22.3029 85.0991 22.0249C85.4357 21.7468 85.604 21.3444 85.604 20.8175C85.604 20.3053 85.4357 19.9175 85.0991 19.6541C84.7625 19.376 84.2503 19.237 83.5625 19.237H80.4672V22.442ZM80.4672 16.5369H83.2112C84.5576 16.5369 85.2308 16.01 85.2308 14.9563C85.2308 13.9026 84.5576 13.3758 83.2112 13.3758H80.4672V16.5369ZM96.7906 13.9026C97.9467 13.9026 98.9565 14.1295 99.8199 14.5832C100.698 15.0222 101.379 15.6734 101.861 16.5369C102.359 17.3857 102.608 18.4101 102.608 19.6102C102.608 20.8102 102.359 21.8419 101.861 22.7054C101.379 23.5542 100.698 24.2054 99.8199 24.6591C98.9565 25.0981 97.9467 25.3177 96.7906 25.3177C95.6637 25.3177 94.6612 25.0981 93.7832 24.6591C92.9051 24.2054 92.2173 23.5542 91.7197 22.7054C91.2367 21.8419 90.9953 20.8102 90.9953 19.6102C90.9953 18.4101 91.2367 17.3857 91.7197 16.5369C92.2173 15.6734 92.9051 15.0222 93.7832 14.5832C94.6612 14.1295 95.6637 13.9026 96.7906 13.9026ZM96.7906 16.5588C96.3662 16.5588 96.0003 16.6613 95.693 16.8662C95.3857 17.071 95.1515 17.4003 94.9905 17.854C94.8295 18.3077 94.749 18.8931 94.749 19.6102C94.749 20.3273 94.8295 20.9126 94.9905 21.3663C95.1515 21.8053 95.3857 22.1346 95.693 22.3541C96.0003 22.559 96.3662 22.6615 96.7906 22.6615C97.2296 22.6615 97.6028 22.559 97.9101 22.3541C98.2175 22.1346 98.4516 21.8053 98.6126 21.3663C98.7736 20.9126 98.8541 20.3273 98.8541 19.6102C98.8541 18.8931 98.7736 18.3077 98.6126 17.854C98.4516 17.4003 98.2175 17.071 97.9101 16.8662C97.6028 16.6613 97.2296 16.5588 96.7906 16.5588ZM107.334 14.1222L110.012 19.0614L111.241 18.9516L115.566 25.0981H111.285L108.519 20.0931H107.224L103.031 14.1222H107.334ZM115.478 14.1222L111.329 20.0492L109.946 19.9614L107.07 25.0981H102.878L107.29 18.9077L108.563 19.0833L111.285 14.1222H115.478Z" fill="#2947A9"/>
<path d="M13.9082 26.8306V34.7575L27.8139 26.7279V18.802L13.9082 26.8306Z" fill="#2947A9"/>
<path d="M20.133 11.5211L26.9943 7.55762L13.9082 0V7.92672L20.133 11.5211Z" fill="#0B267D"/>
<path d="M8.50378 13.8879V21.8172L13.908 24.9371V17.0113L8.50378 13.8879Z" fill="#91A1D4"/>
<path d="M27.8139 8.97845L13.9082 17.0114V24.9371L27.8139 16.9075V8.97845Z" fill="#2947A9"/>
<path d="M0.828125 7.553L7.64825 11.5396L13.908 7.92672V0L0.828125 7.553Z" fill="#2947A9"/>
<path d="M6.8636 22.7645V12.937L0 8.97485V26.7277L13.908 34.7573V26.8304L6.8636 22.7645Z" fill="#91A1D4"/>
</svg>
